<?xml version="1.0" encoding="UTF-8"?>
<svg xmlns="http://www.w3.org/2000/svg" width="1200" height="760" viewBox="0 0 1200 760">
<defs>
<linearGradient id="bg" x1="0" y1="0" x2="1" y2="1">
<stop offset="0%" stop-color="#0D1117"/>
<stop offset="100%" stop-color="#161B22"/>
</linearGradient>
<style>
.title{fill:#58A6FF;font:700 24px monospace}
.head{fill:#F0F6FC;font:700 20px monospace}
.txt{fill:#C9D1D9;font:15px monospace}
.tag{fill:#3FB950;font:14px monospace}
.small{fill:#8B949E;font:13px monospace}
</style>
</defs>

<rect width="1200" height="760" rx="18" fill="url(#bg)"/>
<rect width="1200" height="48" fill="#161B22"/>
<circle cx="30" cy="24" r="7" fill="#FF5F56"/>
<circle cx="55" cy="24" r="7" fill="#FFBD2E"/>
<circle cx="80" cy="24" r="7" fill="#27C93F"/>
<text x="1120" y="30" text-anchor="end" class="small">AI Workspace</text>

<text x="40" y="85" class="title">Loaded Modules</text>

<rect x="40" y="120" width="520" height="170" rx="14" fill="#0D1117" stroke="#30363D"/>
<text x="60" y="155" class="head">🤖 ARGUS</text>
<text x="60" y="185" class="txt">Multi-Agent Verified RAG</text>
<text x="60" y="215" class="small">LangGraph • Llama3 • FAISS</text>
<circle cx="64" cy="250" r="5" fill="#3FB950">
<animate attributeName="opacity" values="1;0.2;1" dur="1.4s" repeatCount="indefinite"/>
</circle>
<text x="78" y="255" class="tag">LIVE</text>

<rect x="60" y="265" width="90" height="18" rx="9" fill="#58A6FF"/>
<text x="84" y="278" font-size="11" fill="#0D1117" font-family="monospace">SOURCE</text>

<rect x="165" y="265" width="75" height="18" rx="9" fill="#3FB950"/>
<text x="187" y="278" font-size="11" fill="#0D1117" font-family="monospace">LIVE</text>

<rect x="610" y="120" width="520" height="170" rx="14" fill="#0D1117" stroke="#30363D"/>
<text x="630" y="155" class="head">🏋 FITVIBE</text>
<text x="630" y="185" class="txt">AI Fitness Agents</text>
<text x="630" y="215" class="small">Flask • Groq • Guardrails</text>
<circle cx="634" cy="250" r="5" fill="#3FB950">
<animate attributeName="opacity" values="1;0.2;1" dur="1.4s" repeatCount="indefinite"/>
</circle>
<text x="648" y="255" class="tag">LIVE</text>

<rect x="630" y="265" width="90" height="18" rx="9" fill="#58A6FF"/>
<text x="654" y="278" font-size="11" fill="#0D1117" font-family="monospace">SOURCE</text>

<rect x="735" y="265" width="75" height="18" rx="9" fill="#3FB950"/>
<text x="757" y="278" font-size="11" fill="#0D1117" font-family="monospace">LIVE</text>

<rect x="40" y="330" width="520" height="170" rx="14" fill="#0D1117" stroke="#30363D"/>
<text x="60" y="365" class="head">🧠 SOCRATIC</text>
<text x="60" y="395" class="txt">Adaptive AI Tutor</text>
<text x="60" y="425" class="small">FastAPI • Gemini • Belief State</text>
<circle cx="64" cy="460" r="5" fill="#3FB950">
<animate attributeName="opacity" values="1;0.2;1" dur="1.4s" repeatCount="indefinite"/>
</circle>
<text x="78" y="465" class="tag">LIVE</text>

<rect x="60" y="475" width="90" height="18" rx="9" fill="#58A6FF"/>
<text x="84" y="488" font-size="11" fill="#0D1117" font-family="monospace">SOURCE</text>

<rect x="165" y="475" width="75" height="18" rx="9" fill="#3FB950"/>
<text x="187" y="488" font-size="11" fill="#0D1117" font-family="monospace">LIVE</text>

<rect x="610" y="330" width="520" height="170" rx="14" fill="#0D1117" stroke="#30363D"/>
<text x="630" y="365" class="head">📊 VIZMIND</text>
<text x="630" y="395" class="txt">Data Intelligence</text>
<text x="630" y="425" class="small">React • GPT-4 • Danfo.js</text>
<circle cx="634" cy="460" r="5" fill="#3FB950">
<animate attributeName="opacity" values="1;0.2;1" dur="1.4s" repeatCount="indefinite"/>
</circle>
<text x="648" y="465" class="tag">LIVE</text>

<rect x="630" y="475" width="90" height="18" rx="9" fill="#58A6FF"/>
<text x="654" y="488" font-size="11" fill="#0D1117" font-family="monospace">SOURCE</text>

<rect x="735" y="475" width="75" height="18" rx="9" fill="#3FB950"/>
<text x="757" y="488" font-size="11" fill="#0D1117" font-family="monospace">LIVE</text>

<rect x="40" y="540" width="520" height="170" rx="14" fill="#0D1117" stroke="#30363D"/>
<text x="60" y="575" class="head">🏥 HOSPITAL</text>
<text x="60" y="605" class="txt">Healthcare Platform</text>
<text x="60" y="635" class="small">Next.js • Prisma • PostgreSQL</text>
<circle cx="64" cy="670" r="5" fill="#3FB950">
<animate attributeName="opacity" values="1;0.2;1" dur="1.4s" repeatCount="indefinite"/>
</circle>
<text x="78" y="675" class="tag">LIVE</text>

<rect x="60" y="685" width="90" height="18" rx="9" fill="#58A6FF"/>
<text x="84" y="698" font-size="11" fill="#0D1117" font-family="monospace">SOURCE</text>

<rect x="165" y="685" width="75" height="18" rx="9" fill="#3FB950"/>
<text x="187" y="698" font-size="11" fill="#0D1117" font-family="monospace">LIVE</text>

<rect x="610" y="540" width="520" height="170" rx="14" fill="#0D1117" stroke="#30363D"/>
<text x="630" y="575" class="head">💰 FORESIGHT</text>
<text x="630" y="605" class="txt">FinTech Dashboard</text>
<text x="630" y="635" class="small">Next.js • Plaid • Firebase</text>
<circle cx="634" cy="670" r="5" fill="#3FB950">
<animate attributeName="opacity" values="1;0.2;1" dur="1.4s" repeatCount="indefinite"/>
</circle>
<text x="648" y="675" class="tag">LIVE</text>

<rect x="630" y="685" width="90" height="18" rx="9" fill="#58A6FF"/>
<text x="654" y="698" font-size="11" fill="#0D1117" font-family="monospace">SOURCE</text>

<rect x="735" y="685" width="75" height="18" rx="9" fill="#3FB950"/>
<text x="757" y="698" font-size="11" fill="#0D1117" font-family="monospace">LIVE</text>
</svg>